<?xml version="1.0" encoding="UTF-8"?>
<svg xmlns="http://www.w3.org/2000/svg" version="1.1" viewBox="0 0 1900 900">
  <defs>
    <style>
      .cls-1 {
        fill: #a8d04b;
      }

      .cls-1, .cls-2, .cls-3, .cls-4, .cls-5, .cls-6 {
        stroke-miterlimit: 10;
      }

      .cls-1, .cls-2, .cls-3, .cls-4, .cls-5, .cls-7 {
        stroke: #fff;
      }

      .cls-1, .cls-3, .cls-4, .cls-5 {
        stroke-width: 6px;
      }

      .cls-2 {
        stroke-width: 4px;
      }

      .cls-2, .cls-8 {
        fill: #462de0;
      }

      .cls-9 {
        fill: #ffea00;
        fill-rule: evenodd;
      }

      .cls-3 {
        fill: #80c88d;
      }

      .cls-4 {
        fill: #f99f44;
      }

      .cls-10, .cls-7 {
        fill: #0b3c84;
      }

      .cls-11 {
        fill: #fff;
      }

      .cls-5 {
        fill: #20a1a1;
      }

      .cls-6 {
        stroke: #1d1d1b;
      }

      .cls-12 {
        display: none;
      }

      .cls-7 {
        stroke-linejoin: bevel;
        stroke-width: 9px;
      }
    </style>
  </defs>
  <!-- Generator: Adobe Illustrator 28.7.1, SVG Export Plug-In . SVG Version: 1.2.0 Build 142)  -->
  <g>
    <g id="Layer_3" class="cls-12">
      <rect class="cls-6" y="-20" width="1906" height="936"/>
    </g>
    <g id="Firefly" class="cls-12">
      <g id="Logos">
        <g id="Hyperledger-Firefly-Guide-Copy">
          <g id="Group-2">
            <g id="Group-2-Copy-2">
              <path id="Combined-Shape" class="cls-2" d="M328.5,398.3l22.2,9.1v121c0,7.7-3.9,14.8-10.4,18.9l-.8.5-53.8,31.2c-6.8,3.9-15.3,3.9-22.2,0h0l-53.8-31.2c-6.8-3.9-11-11.3-11-19.3h0v-120.8l22.2-8.4v129.3l53.8,31.2,53.8-31.2v-130.3ZM263.7,272.7c6.8-3.9,15.3-3.9,22.2,0h0l53.8,31.2c6.8,3.9,11,11.3,11,19.3h0v23.9l-22.2-.5v-23.5l-53.8-31.2-53.8,31.2v21.2l-22.2-.5v-20.8c0-7.7,3.9-14.8,10.4-18.9l.8-.5,53.8-30.9Z"/>
              <path id="Path-3" class="cls-9" d="M218.5,497.9v32.8l56.4,32,56.1-33.1-.9-100.8-54.8,30.7c-.3.1-.6.1-.8,0l-56-30.7v69.1Z"/>
              <path id="Path-2" class="cls-8" d="M334.4,458.5l11,19.3-65,37.7c-3.3,1.9-7.4,2-10.8.2l-.4-.2-65-37.7,11-19.3,59.5,34.6,59.6-34.6Z"/>
              <path id="Path-2-Copy" class="cls-8" d="M334.4,401.3l11,19.3-65,37.7c-3.3,1.9-7.4,2-10.8.2l-.4-.2-65-37.7,11-19.3,59.5,34.6,59.6-34.6Z"/>
              <path id="Path-4" class="cls-2" d="M276.3,331.4H17.7c-10.7,0-15.2,13.6-6.6,20.1l124.3,93.6c3.3,2.4,7.6,2.9,11.2,1.2l128.3-59.4M263.7,353.7v14.4l-120.3,55.2-92.4-69.6h212.7Z"/>
              <path id="Path-4-Copy" class="cls-2" d="M276.3,331.4h257.1c10.7,0,15.2,13.6,6.6,20.1l-124.3,93.6c-3.3,2.4-7.6,2.9-11.2,1.2l-129.6-59.4M287.3,353.7v14.4l120.3,55.2,92.4-69.6h-212.7Z"/>
              <path id="Line-Copy-3" class="cls-2" d="M237.9,261.5c6,0,10.9,4.8,11,10.8v24.5c0,6.1-5,11.1-11,11.1s-10.9-4.8-11-10.8v-24.4c0-6.2,4.9-11.2,11-11.2Z"/>
              <path id="Line-Copy-4" class="cls-2" d="M313.9,261.5c6,0,10.9,4.8,11,10.8v24.5c0,6.1-5,11.1-11,11.1s-10.9-4.8-11-10.8v-24.4c0-6.2,4.9-11.2,11-11.2Z"/>
            </g>
          </g>
        </g>
      </g>
      <g>
        <path class="cls-11" d="M624.1,661.8v-229.4h140.3v24.9h-112.5v77h103.5v24.9h-103.5v102.6h-27.9Z"/>
        <path class="cls-11" d="M799.9,661.8v-229.4h27.9v229.4h-27.9Z"/>
        <path class="cls-11" d="M877.6,661.8v-229.4h93.9c14.4,0,27.1,2.5,38,7.4,10.9,4.9,19.5,11.9,25.7,20.9,6.1,9,9.3,20,9.3,32.6v3.6c0,15.1-3.6,27-10.9,35.7-7.3,8.7-15.9,14.6-25.9,17.7v4.6c8,.2,14.5,2.8,19.8,7.7,5.2,4.9,7.8,12.3,7.8,22.1v77h-27.6v-73.8c0-6.5-1.8-11.6-5.5-15.1-3.6-3.5-9.1-5.3-16.4-5.3h-80.3v94h-27.9ZM905.5,542.8h63.4c15.3,0,27.1-3.6,35.3-10.9,8.3-7.3,12.5-17.6,12.5-30.6v-2.3c0-13.1-4.1-23.3-12.3-30.6-8.2-7.3-20.1-10.9-35.5-10.9h-63.4v85.5Z"/>
        <path class="cls-11" d="M1083.7,661.8v-229.4h143.1v24.9h-115.2v76.6h105.8v24.9h-105.8v78h116.8v24.9h-144.7Z"/>
        <path class="cls-11" d="M1267.3,661.8v-229.4h140.4v24.9h-112.6v77h103.5v24.9h-103.5v102.6h-27.9Z"/>
        <path class="cls-11" d="M1443.2,661.8v-229.4h27.9v204.5h117.5v24.9h-145.3Z"/>
        <path class="cls-11" d="M1641.1,661.8v-87.5l-82.7-141.9h31.9l62.4,110.1h4.6l62.4-110.1h31.9l-82.7,141.9v87.5h-27.9Z"/>
      </g>
      <g>
        <path class="cls-11" d="M1404.6,341.1c0-.7,0-1.3.2-2h0c0,0-17.8,0-17.8,0v.5c-.6,4-3.2,6.9-6.9,7.8-1.4.3-3,.5-4.4.5h-51c-1.4,0-3-.2-4.4-.5-3.4-.8-5.6-2.8-6.5-5.8-.4-1.2-.6-2.5-.6-3.8,0-1.9,0-3.9,0-5.9v-4l91.8.2v-21.2c0-2.3-.2-4.3-.5-6.2-.8-5.1-3.1-9.4-7-12.8-5.2-4.6-11.6-6.9-19-7-8.1,0-16.2,0-24.4,0h-32.2c-1.6,0-3.5.2-5.4.5-3.3.6-6.2,1.6-9,3.2-4.1,2.3-7.3,5.4-9.4,9.2-1.9,3.5-2.9,7.2-2.9,11.5v32.6c0,1.2,0,2.6.3,3.9,1,6.9,4.7,12.4,11,16.2,4.7,2.8,10.1,4.2,15.9,4.2h55.3c4.8,0,9.3-1,13.4-2.9,7.9-3.7,12.3-9.7,13.4-18ZM1313.1,303.8c.2-4.4,2.9-7.6,7.3-8.5,1.4-.3,3-.5,4.5-.5h50.5c1.5,0,3.6,0,5.7.8,3.6,1.2,5.6,3.8,5.9,7.5.2,2.1,0,4.3,0,6.4v3.9h-74v-4c0-1.7,0-3.6,0-5.6Z"/>
        <path class="cls-11" d="M1793.7,300.5c-.8-5.1-3.1-9.4-7-12.8-5.2-4.6-11.6-6.9-19-7-8.1,0-16.2,0-24.4,0h-32.2c-1.6,0-3.5.2-5.4.5-3.3.6-6.2,1.6-9,3.2-4.1,2.3-7.3,5.4-9.4,9.2-1.9,3.5-2.9,7.2-2.9,11.5v32.6c0,1.2,0,2.6.3,3.9,1,6.9,4.7,12.4,11,16.2,4.7,2.8,10.1,4.2,15.9,4.2h55.3c4.8,0,9.3-1,13.4-2.9,8-3.8,12.4-9.8,13.4-18.1,0-.7,0-1.3.2-2h0c0,0-17.8,0-17.8,0v.5c-.6,4-3.2,6.9-6.9,7.8-1.4.3-3,.5-4.4.5h-51c-1.4,0-3-.2-4.4-.5-3.4-.8-5.6-2.8-6.5-5.8-.4-1.2-.6-2.5-.6-3.8,0-1.9,0-3.9,0-5.9v-4l91.8.2v-21.2c0-2.2-.2-4.2-.5-6.1ZM1776.3,309.5v3.9h-74v-4c0-1.8,0-3.8,0-5.7.2-4.4,2.9-7.6,7.3-8.5,1.4-.3,3-.5,4.5-.5h50.5c1.5,0,3.6,0,5.7.8,3.6,1.2,5.6,3.8,5.9,7.5,0,2.3,0,4.4,0,6.5Z"/>
        <path class="cls-11" d="M1132.6,300.5c-.8-5.1-3.1-9.4-7-12.8-5.2-4.6-11.6-6.9-19-7-8.1,0-16.2,0-24.4,0h-32.1c-1.6,0-3.5.2-5.4.5-3.3.6-6.2,1.6-9,3.2-4.1,2.3-7.3,5.4-9.4,9.2-1.9,3.5-2.9,7.2-2.9,11.5v32.7c0,1.2,0,2.6.3,3.9,1,6.9,4.7,12.4,11,16.2,4.7,2.8,10.1,4.2,15.9,4.2h55.3c4.8,0,9.3-1,13.4-2.9,8-3.8,12.4-9.8,13.4-18.1,0-.7,0-1.3.2-2h0c0,0-17.8,0-17.8,0v.5c-.6,4-3.2,6.9-6.9,7.8-1.4.3-3,.5-4.4.5h-51c-1.4,0-3-.2-4.4-.5-3.4-.8-5.6-2.8-6.5-5.8-.4-1.2-.6-2.5-.6-3.8,0-1.9,0-3.9,0-5.9v-1.8c0-.3,0-.5,0-.8l.2-1.2h91.5v-21.2c0-2.3-.3-4.3-.6-6.2ZM1115.2,309.6v2.7c0,.3,0,.5-.2.6l-.2.6h-.7c0,0-72.7,0-72.7,0v-1.1c0-.2-.2-.4-.2-.6v-2.4c0-1.8,0-3.8,0-5.7.2-4.4,2.9-7.6,7.3-8.5,1.4-.3,3-.5,4.5-.5h50.5c1.5,0,3.6,0,5.7.8,3.6,1.2,5.6,3.8,5.9,7.5,0,2.3,0,4.4,0,6.5Z"/>
        <path class="cls-11" d="M641.5,302.1v-62.9h-18v122.7h5.7c2.9,0,6.2,0,12.2,0v-13.8c0-12.3,0-9.5,0-21.8v-24.1h0Z"/>
        <path class="cls-11" d="M1894.5,293.4c-2.1-4-5.2-7.1-9.1-9.3-3.9-2.2-8.5-3.3-13.8-3.4-7.2,0-13.7,0-19.9,0-4.1,0-8.3,1-11.8,2.5-2.4,1.1-4.5,2.7-6.4,4.5h0c0,0,0-6.8,0-6.8h-18s.4,81.4,0,81.2h17.8l.3-55c0-1.6,0-3.1.3-4.3.4-3.2,2.1-5.5,5.1-6.7,2.1-.9,4.2-1.1,6.1-1.1h23.2c1.2,0,2.5.2,3.7.4,4.5.7,7.4,3.9,7.7,8.7h17.9c-.4-4.3-1.3-7.8-3-10.7Z"/>
        <path class="cls-11" d="M1234.4,293.4c-2.1-4-5.2-7.1-9.1-9.3-3.9-2.2-8.5-3.3-13.8-3.4-7.2,0-13.7,0-19.9,0-4.1,0-8.3,1-11.8,2.5-2.4,1.1-4.5,2.7-6.4,4.5h0c0,0,0-6.8,0-6.8h-18s.4,81.4,0,81.2h17.8l.3-55c0-1.6,0-3.1.3-4.3.4-3.2,2.1-5.5,5.1-6.7,2.1-.9,4.2-1.1,6.1-1.1h23.2c1.2,0,2.5.2,3.7.4,4.5.7,7.4,3.9,7.7,8.7h17.9c-.4-4.3-1.3-7.8-3-10.7Z"/>
        <path class="cls-11" d="M975.6,362c1,0,1.9,0,2.9-.2h.2c5.1-.6,9.8-2.4,13.7-5.2,3.5-2.5,6-5.5,7.6-9.2,1.2-3,1.9-6.1,1.9-9.8v-32.8c0-1.7,0-3.9-.6-6.1-1.3-5.4-4.3-9.7-8.8-12.9-5.1-3.6-11-5.5-17.7-5.5h-42.8c-1.7,0-3.5.2-5.2.5-3.9.7-7.7,2.1-11.1,4.4-.2.2-1.4,1-2.4,1.6h0v-6.1h-17.9v103.2h17.9v-78.2c0-1,0-1.9,0-3,.5-3.6,2.4-6.1,5.7-7.2,1.5-.6,3.2-.9,4.7-.9,6.2,0,12.4,0,18.6,0h31.3c1.4,0,3.1.3,4.7.9,3.5,1.2,5.7,4.3,5.7,8.2v34.9c0,4.5-2.7,7.8-7,8.7-1.4.3-2.9.5-4.4.5h-41.7l-13.4,14.2h58Z"/>
        <path class="cls-11" d="M1534.9,361.7v-119.8h-17.9v94.9c0,1,0,1.9,0,3-.5,3.6-2.4,6.1-5.7,7.2-1.5.6-3.2.9-4.7.9h-49.8c-1.4,0-3.1-.3-4.7-.9-3.5-1.2-5.7-4.3-5.7-8.2v-34.9c0-4.5,2.7-7.8,7-8.7,1.4-.3,2.9-.5,4.4-.5h41.6l13.4-14.2h-58.2c-1,0-1.9,0-2.9.2h-.2c-5.2.6-9.8,2.4-13.7,5.2-3.5,2.5-6,5.6-7.6,9.2-1.2,3-1.9,6.1-1.9,9.8v32.8c0,1.7,0,3.9.6,6.1,1.3,5.4,4.3,9.7,8.8,12.9,5.1,3.6,11,5.5,17.7,5.5h42.8c1.7,0,3.5-.2,5.2-.5,3.9-.7,7.7-2.1,11.1-4.4.2-.2,1.2-.8,2.4-1.4h0v6h18.1Z"/>
        <polygon class="cls-11" points="1255.1 240.2 1255.1 362 1273 362 1273 240.2 1255.1 240.2"/>
        <path class="cls-11" d="M726.7,240.2v55.5h-73.6l-11.7,14.2h85.3v52.2h18v-122h-18Z"/>
        <path class="cls-11" d="M1664.3,281v-.6h-17.8v6.3c0,0-7.3-6.5-19.4-6.5h-42c-2.1,0-3.8,0-5.4.4-4.2.7-8,2.1-11.2,4.1-4.7,3-7.9,6.9-9.5,11.6-.9,2.5-1.3,5.3-1.3,8.5v32.3c0,1.9,0,3.6.4,5.2.8,4.2,2.5,8,5.4,10.9,5.3,5.7,12,8.5,19.9,8.6,13.2.2,28.5,0,43.4,0h1.7l13.4-14.2h-55c-1.4,0-3-.2-4.7-.7-3.7-1.1-6.1-3.9-6.4-8.1v-34c0-1.4,0-3,.7-4.4,1-2.6,2.8-4.3,5.3-5.1,1.6-.6,3.3-.8,4.7-.9,6.2,0,12.4,0,18.6,0h31.3c1.4,0,3,.3,4.5.9,2.7.9,4.5,2.9,5.3,5.7.3,1.2.5,2.3.5,3.4v66h0v3.2c0,.8-.2,1.7-.6,2.6-1,2.1-2.6,3.6-5,4.5-1.6.6-3.5,1-5.4.9h-49.5l-11.7,14.2c12.9,0,35.4,0,52.1,0h11.7c1.2,0,2.5,0,3.6-.3,4-.5,8-1.7,11.5-3.9,4.3-2.7,7.4-6.1,9.2-10.4,1.2-2.9,1.8-6.1,1.8-10v-61.3l-.2-29Z"/>
        <path class="cls-11" d="M872.7,281.1v-.4h-17.9v56.4c0,1.2,0,2.5-.4,3.7-.6,2.7-2.2,4.7-4.7,5.9-1.8.9-3.8,1.2-6.4,1.2h-47.7c-1.5,0-3-.2-4.4-.5-3.4-.8-5.7-2.8-6.7-5.9-.5-1.4-.5-2.9-.5-4.2v-56.5h-17.8v56.2c0,1.6,0,3.3.3,5,.6,4.2,2.3,8.1,5.2,11.2,5.3,5.8,12,8.7,20.1,8.8h46.6c5.5,0,10.4-1.2,14.3-3.8.2-.2,1.3-.9,2.3-2h0v17.1c0,2.7-1.3,4.9-3.7,6.5-1.9,1.2-4.2,1.8-7,1.8h-49.8l-11.8,14h63.7c1.1,0,2.3,0,3.7-.3,4.9-.6,9.4-2.3,13.4-5.2,6.1-4.5,9.2-10.5,9.3-17.7,0-22.6,0-45.5,0-67.7v-23.8Z"/>
      </g>
    </g>
    <g id="Besu" class="cls-12">
      <g id="Layer_1">
        <path class="cls-5" d="M434.9,431.5v-1.1c0-14.3-11.4-25.7-25.7-25.7h-1.1c-5.7,0-10.8,1.7-14.9,4.6l-128.2-73.8v-2.9c0-14.3-11.4-25.7-25.7-25.7h-1.1c-14.3,0-25.7,11.4-25.7,25.7v2.9l-128.2,73.8c-1.7-1.1-2.9-1.7-4.6-2.9v-148.8c9.2-4,15.4-13.2,15.4-24s-12.1-26.4-26.4-26.4-26.4,11.4-26.4,26.4,6.3,20,15.4,24v149.4c-9.2,4-15.4,13.2-15.4,23.5v1.1c0,10.3,6.3,19.5,15.4,23.5v147.7c-9.2,4-15.4,13.2-15.4,23.5v1.1c0,14.3,11.4,25.7,25.7,25.7h1.1c5.7,0,10.8-1.7,14.9-4.6l128.2,73.8v2.9c0,14.3,11.4,25.7,25.7,25.7h1.1c14.3,0,25.7-11.4,25.7-25.7v-2.9l128.2-73.8c4,2.9,9.2,4.6,14.9,4.6h1.1c14.3,0,25.7-11.4,25.7-25.7v-.6c0-10.3-6.3-19.5-15.4-23.5v-147.7c9.2-4,15.4-13.2,15.4-24h.2ZM397.7,598.5c-12-20-32.6-41.8-58.4-62.9-5.7,4.6-12,9.2-17.8,13.8,32.6,26.3,53.2,51.5,61.8,68.6-.6,2.9-1.1,5.7-1.1,8.6v2.9l-128.2,74.3c-3.5-2.2-6.8-4-11.4-4.6-16-26.9-32.3-87.9-32.1-170.3,0-37.1-.2-25.2,0-37.1-7.5-3.5-12.7-6-19.5-9.5-1.1,15.4-1.7,30.9-1.7,47,0,66.4,10.3,133.4,29.7,172.3l-117.8-68.1c21.8,0,51-6.8,83-19.5-1.1-7.5-1.7-14.9-2.9-22.4-42.4,17.2-74.3,22.4-92.1,18.9-2.9-3.5-6.3-6.3-10.3-8v-147.1c4-1.7,7.5-4.6,10.3-8,26.3-5.1,88.1,9.7,165.9,56.1,10.3,6.3,20,12.6,29.2,18.9,6.3-4.6,12.6-9.2,18.9-13.8-12-8-24-16-36.7-24-64.1-38.3-125.3-60-165.3-60.7l117.8-68.1c-10.3,20.6-18.3,48.6-22.9,80.7,6.8,2.9,13.8,5.7,20.6,9.2,5.7-40.6,16-70.4,25.7-87,4-.6,8-2.2,11.4-4.6l128.2,74.3v2.9c0,2.9.6,5.7,1.1,8-13.2,27.5-57.2,72.1-127.7,114.5-10.8,6.8-21.8,12.6-32.1,17.8.6,8,1.1,16,2.2,23.5,13.8-6.8,27.5-14.3,41.3-22.4,56.7-33.8,108.1-76.7,131-113.9v139.6h-.6.3Z"/>
        <g>
          <path class="cls-11" d="M597.4,616.4c-8.6-4.5-17.1-12.3-25.7-23.4v26.9h-26.7v-239.5h26.7v92.9c8.8-11.3,17.4-19.1,26-23.6,8.6-4.4,18.8-6.6,30.7-6.6s29.1,3.8,40.6,11.3c11.6,7.5,20.6,18.1,26.9,31.9,6.4,13.8,9.6,29.3,9.6,47s-3.2,33.2-9.6,46.7c-6.4,13.6-15.4,24.1-27.2,31.6-11.7,7.5-25.3,11.3-40.5,11.3s-22.5-2.2-31.1-6.7h.1ZM654.1,591c8-5.7,14.2-13.6,18.6-23.7,4.2-10.1,6.5-21.4,6.5-33.9s-2.1-24.1-6.5-34.2c-4.2-10.1-10.5-17.9-18.6-23.7-8-5.7-17.4-8.6-28.1-8.6s-20.2,2.9-28.5,8.6c-8.4,5.7-14.9,13.6-19.6,23.7-4.7,10.1-7,21.5-7,34.2s2.3,23.9,7,34.1c4.7,10.2,11.3,18,19.6,23.7,8.4,5.7,17.9,8.5,28.5,8.5s20-2.9,28.1-8.6h0Z"/>
          <path class="cls-11" d="M777.1,611.5c-12.9-7.7-22.8-18.4-30-32-7.2-13.6-10.6-28.8-10.6-45.8s3.4-31,10.1-44.7c6.7-13.8,16.3-24.7,29.1-33.1,12.6-8.4,27.6-12.5,44.7-12.5s28.6,3.4,41.4,10.1c12.7,6.7,23,16.4,30.7,29.3,7.7,12.9,11.6,28.3,11.6,46.3v9.4h-141.2c.4,6,1.6,11.9,3.5,17.2,4.4,13.4,11.4,24,21.1,32s20.8,12,33.1,12,23.4-3.4,32.3-10.1c8.9-6.7,15.4-15.2,19.5-25.4h28.5c-5.7,17.6-15.3,31.7-28.8,42.7-13.6,10.8-30.6,16.3-51.2,16.3s-30.9-3.9-43.8-11.6h.1ZM875.5,514.9c-.4-6.3-1.7-12-3.8-17-4.4-9.8-11.2-17.4-20.2-22.9s-19.3-8.2-30.6-8.2-21.6,2.7-30.3,8.2c-8.7,5.5-15.4,13.1-20.2,22.9-2.1,4.6-3.8,10.3-5,17h110.2Z"/>
          <path class="cls-11" d="M957.4,607.5c-13.8-10.5-22.1-24.9-25.2-43.3h27.9c2.3,11.1,7.7,19.8,16.2,26,8.5,6.3,20.1,9.4,35,9.4s21.8-2.3,29.1-6.9c7.3-4.6,10.8-11.2,10.8-19.8s-2.1-12.1-6.5-16.2c-4.2-4-9.7-7.2-16.3-9.3-6.6-2.1-15.3-4.1-26.2-6.3-13.6-2.7-24.5-5.5-32.8-8.3-8.3-2.8-15.3-7.4-21.1-13.6-5.8-6.3-8.8-15-8.8-26s5.9-27.9,17.8-36.7c11.9-8.8,26.9-13.2,45.4-13.2s34.5,4.9,47.1,14.8c12.5,9.8,20.2,23.4,23.3,40.5h-24.8c-2.5-10.6-7.7-18.7-15.7-23.8-7.9-5.3-17.9-7.8-29.8-7.8s-20.5,2.1-26.8,6.5c-6.4,4.2-9.6,10.2-9.6,17.8s2,10.5,5.9,13.8c4,3.4,8.9,5.9,14.8,7.7,5.8,1.8,14.1,3.7,24.8,5.8,14,2.7,25.4,5.6,34.2,8.6,8.8,3,16.3,7.9,22.6,14.8,6.3,6.8,9.4,16.3,9.4,28.4s-5.8,29.3-17.6,38.8c-11.7,9.5-28.2,14.3-49.3,14.3s-39.8-5.3-53.7-15.7v-.2Z"/>
          <path class="cls-11" d="M1123.3,595.8c-5.5-10.3-8.2-25.2-8.2-44.8v-104.5h26.7v104.5c0,18.4,3.4,31.4,10.1,38.9,5.8,6.5,14.8,9.7,26.7,9.7s23.7-4.2,31.6-12.9c5.7-5.8,9.7-13.9,12.1-24.1,2.3-10.3,3.6-24.3,3.6-42v-74h26.7v173.5h-26.7v-26.9c-8.4,10.6-16.5,18.3-24.6,23-8,4.7-17,7-26.8,7-24.3,0-41.4-9.1-51.1-27.3h-.1Z"/>
        </g>
      </g>
    </g>
    <g id="Cacti" class="cls-12">
      <g>
        <path class="cls-11" d="M639.6,667.2c-29.2,0-52.4-8.3-69.7-25.1-17.3-16.7-25.9-41.1-25.9-73.1v-55.3c0-32,8.6-56.4,25.9-73.1,17.3-16.7,40.5-25.1,69.7-25.1s51.2,7.9,66.7,23.8,23.3,37.7,23.3,65.3v1.7h-29.1v-2.8c0-18.2-5-33.1-14.9-44.8-9.9-11.6-25.3-17.5-46-17.5s-37,6.3-48.7,18.8c-11.6,12.9-17.5,30.5-17.5,53v56.7c0,22.6,5.8,40.1,17.5,52.7s27.9,18.8,48.7,18.8,36.1-5.8,46-17.5c9.9-11.6,14.9-26.6,14.9-44.8v-5.4h29.1v4.5c0,27.6-7.8,49.4-23.3,65.3-15.5,15.9-37.8,23.9-66.7,23.9Z"/>
        <path class="cls-11" d="M750.6,662.3l75.6-241.9h51.8l75.6,241.9h-30.5l-18.9-61.2h-104.3l-18.9,61.2h-30.4ZM807.3,574.9h89.3l-42-136.9h-4.9l-42.4,136.9Z"/>
        <path class="cls-11" d="M1071.9,667.2c-29.2,0-52.4-8.3-69.7-25.1-17.3-16.7-25.9-41.1-25.9-73.1v-55.3c0-32,8.6-56.4,25.9-73.1,17.3-16.7,40.5-25.1,69.7-25.1s51.2,7.9,66.7,23.8,23.3,37.7,23.3,65.3v1.7h-29.1v-2.8c0-18.2-5-33.1-14.9-44.8-9.9-11.6-25.3-17.5-46-17.5s-37,6.3-48.7,18.8c-11.7,12.6-17.5,30.1-17.5,52.7v56.7c0,22.6,5.8,40.1,17.5,52.7s27.9,18.8,48.7,18.8,36.1-5.8,46-17.5c9.9-11.6,14.9-26.6,14.9-44.8v-5.1h29.1v4.5c0,27.6-7.8,49.4-23.3,65.3-15.5,15.9-37.8,23.9-66.7,23.9Z"/>
        <path class="cls-11" d="M1258.8,662.3v-215.6h-78.8v-26.3h186.9v26.3h-78.8v215.6h-29.3Z"/>
        <path class="cls-11" d="M1401,662.3v-241.9h29.4v241.9h-29.4Z"/>
      </g>
      <g>
        <path class="cls-11" d="M1360.9,324.8c0-.7,0-1.4.2-2.1h0c0-.1-18.5-.1-18.5-.1v.5c-.6,4.2-3.3,7.2-7.2,8.1-1.5.3-3.1.5-4.6.5h-53.1c-1.5,0-3.1-.2-4.6-.5-3.5-.8-5.8-2.9-6.8-6-.4-1.2-.6-2.6-.6-4,0-2,0-4.1,0-6.1v-4.2l95.6.2v-22.1c0-2.4-.2-4.5-.5-6.5-.8-5.3-3.2-9.8-7.3-13.3-5.4-4.8-12.1-7.2-19.8-7.3-8.4,0-16.9-.1-25.4-.1h-33.5c-1.7,0-3.6.2-5.6.5-3.4.6-6.5,1.7-9.4,3.3-4.3,2.4-7.6,5.6-9.8,9.6-2,3.6-3,7.5-3,12v33.9c0,1.3,0,2.7.3,4.1,1,7.2,4.9,12.9,11.5,16.9,4.9,2.9,10.5,4.4,16.6,4.4h57.6c5,0,9.7-1,13.9-3,8.3-3.8,12.9-10,14-18.7ZM1265.7,286.1c.2-4.6,3-7.9,7.6-8.9,1.5-.3,3.1-.5,4.7-.5h52.6c1.6,0,3.8.1,5.9.8,3.7,1.3,5.8,4,6.1,7.8.2,2.2,0,4.5,0,6.7v4.1h-77v-4.1c0-1.9,0-3.9,0-5.9Z"/>
        <path class="cls-11" d="M1766.1,282.6c-.8-5.3-3.2-9.8-7.3-13.3-5.4-4.8-12.1-7.2-19.8-7.3-8.4,0-16.9-.1-25.4-.1h-33.5c-1.7,0-3.6.2-5.6.5-3.4.6-6.5,1.7-9.4,3.3-4.3,2.4-7.6,5.6-9.8,9.6-2,3.6-3,7.5-3,12v33.9c0,1.3,0,2.7.3,4.1,1,7.2,4.9,12.9,11.5,16.9,4.9,2.9,10.5,4.4,16.6,4.4h57.6c5,0,9.7-1,13.9-3,8.3-4,12.9-10.2,14-18.8,0-.7,0-1.4.2-2.1h0c0-.1-18.5-.1-18.5-.1v.5c-.6,4.2-3.3,7.2-7.2,8.1-1.5.3-3.1.5-4.6.5h-53.1c-1.5,0-3.1-.2-4.6-.5-3.5-.8-5.8-2.9-6.8-6-.4-1.2-.6-2.6-.6-4,0-2,0-4.1,0-6.1v-4.2l95.6.2v-22.1c0-2.3-.2-4.5-.5-6.4ZM1748,292v4.1h-77v-4.1c0-1.9,0-4,0-5.9.2-4.6,3-7.9,7.6-8.9,1.5-.3,3.1-.5,4.7-.5h52.6c1.6,0,3.8.1,5.9.8,3.7,1.3,5.8,4,6.1,7.8,0,2.3,0,4.5,0,6.7Z"/>
        <path class="cls-11" d="M1077.8,282.6c-.8-5.3-3.2-9.8-7.3-13.3-5.4-4.8-12.1-7.2-19.8-7.3-8.4,0-16.9-.1-25.4-.1h-33.4c-1.7,0-3.6.2-5.6.5-3.4.6-6.5,1.7-9.4,3.3-4.3,2.4-7.6,5.6-9.8,9.6-2,3.6-3,7.5-3,12v34c0,1.3,0,2.7.3,4.1,1,7.2,4.9,12.9,11.5,16.9,4.9,2.9,10.5,4.4,16.6,4.4h57.6c5,0,9.7-1,13.9-3,8.3-4,12.9-10.2,14-18.8,0-.7,0-1.4.2-2.1h0c0-.1-18.5-.1-18.5-.1v.5c-.6,4.2-3.3,7.2-7.2,8.1-1.5.3-3.1.5-4.6.5h-53.1c-1.5,0-3.1-.2-4.6-.5-3.5-.8-5.8-2.9-6.8-6-.4-1.2-.6-2.6-.6-4,0-2,0-4.1,0-6.1v-1.9c0-.3,0-.5,0-.8l.2-1.3h95.3v-22.1c-.2-2.4-.3-4.6-.6-6.5ZM1059.6,292.1v2.8c0,.3,0,.5-.2.6l-.2.6h-.7c0,.1-75.7.1-75.7.1v-1.1c0-.2-.2-.4-.2-.6v-2.5c0-1.9,0-4,0-5.9.2-4.6,3-7.9,7.6-8.9,1.5-.3,3.1-.5,4.7-.5h52.6c1.6,0,3.8.1,5.9.8,3.7,1.3,5.8,4,6.1,7.8,0,2.4,0,4.6,0,6.8Z"/>
        <path class="cls-11" d="M566.3,284.3v-65.5h-18.7v127.8h5.9c3,0,6.5,0,12.7-.1v-14.4c0-12.8,0-9.9,0-22.7v-25.1h0Z"/>
        <path class="cls-11" d="M1871,275.2c-2.2-4.2-5.4-7.4-9.5-9.7s-8.8-3.4-14.4-3.5c-7.5-.1-14.3-.1-20.7,0-4.3.1-8.6,1-12.3,2.6-2.5,1.1-4.7,2.8-6.7,4.7h0c0,.1,0-7.1,0-7.1h-18.7s.4,84.7,0,84.5h18.5l.3-57.3c0-1.7,0-3.2.3-4.5.4-3.3,2.2-5.7,5.3-7,2.2-.9,4.4-1.1,6.3-1.1h24.2c1.3,0,2.6.2,3.9.4,4.7.7,7.7,4.1,8,9.1h18.6c-.4-4.5-1.5-8.1-3.1-11.1Z"/>
        <path class="cls-11" d="M1183.8,275.2c-2.2-4.2-5.4-7.4-9.5-9.7s-8.8-3.4-14.4-3.5c-7.5-.1-14.3-.1-20.7,0-4.3.1-8.6,1-12.3,2.6-2.5,1.1-4.7,2.8-6.7,4.7h0c0,.1,0-7.1,0-7.1h-18.7s.4,84.7,0,84.5h18.5l.3-57.3c0-1.7,0-3.2.3-4.5.4-3.3,2.2-5.7,5.3-7,2.2-.9,4.4-1.1,6.3-1.1h24.2c1.3,0,2.6.2,3.9.4,4.7.7,7.7,4.1,8,9.1h18.6c-.4-4.5-1.5-8.1-3.1-11.1Z"/>
        <path class="cls-11" d="M914.3,346.7c1,0,2-.1,3-.2h.2c5.3-.6,10.2-2.5,14.3-5.4,3.6-2.6,6.2-5.7,7.9-9.6,1.3-3.1,2-6.4,2-10.2v-34.1c0-1.8,0-4.1-.6-6.3-1.4-5.6-4.5-10.1-9.2-13.4-5.3-3.8-11.5-5.7-18.4-5.7h-44.6c-1.8,0-3.6.2-5.4.5-4.1.7-8,2.2-11.6,4.6-.2.2-1.5,1-2.5,1.7h0v-6.4h-18.6v107.4h18.6v-81.4c0-1,0-2,0-3.1.5-3.8,2.5-6.4,5.9-7.5,1.6-.6,3.3-.9,4.9-.9,6.5-.1,12.9,0,19.4,0h32.6c1.5,0,3.2.3,4.9.9,3.6,1.3,5.9,4.5,5.9,8.5v36.3c0,4.7-2.8,8.1-7.3,9.1-1.5.3-3,.5-4.6.5h-43.4l-13.9,14.8h60.4Z"/>
        <path class="cls-11" d="M1496.6,346.3v-124.7h-18.6v98.8c0,1,0,2,0,3.1-.5,3.8-2.5,6.4-5.9,7.5-1.6.6-3.3.9-4.9.9h-51.9c-1.5,0-3.2-.3-4.9-.9-3.6-1.3-5.9-4.5-5.9-8.5v-36.3c0-4.7,2.8-8.1,7.3-9.1,1.5-.3,3-.5,4.6-.5h43.3l13.9-14.8h-60.6c-1,0-2,.1-3,.2h-.2c-5.4.6-10.2,2.5-14.3,5.4-3.6,2.6-6.2,5.8-7.9,9.6-1.3,3.1-2,6.4-2,10.2v34.1c0,1.8,0,4.1.6,6.3,1.4,5.6,4.5,10.1,9.2,13.4,5.3,3.8,11.5,5.7,18.4,5.7h44.6c1.8,0,3.6-.2,5.4-.5,4.1-.7,8-2.2,11.6-4.6.2-.2,1.2-.8,2.5-1.5h0v6.2h18.8Z"/>
        <polygon class="cls-11" points="1205.3 219.7 1205.3 346.7 1223.9 346.7 1223.9 219.7 1205.3 219.7"/>
        <path class="cls-11" d="M655.2,219.7v57.8h-76.6l-12.2,14.9h88.8v54.3h18.7v-127h-18.7Z"/>
        <path class="cls-11" d="M1631.3,262.3v-.6h-18.5v6.6c0,0-7.6-6.8-20.2-6.8h-43.7c-2.2,0-4,.1-5.6.4-4.4.7-8.3,2.2-11.7,4.3-4.9,3.1-8.2,7.2-9.9,12.1-.9,2.6-1.4,5.5-1.4,8.8v33.6c0,2,0,3.8.4,5.4.8,4.4,2.6,8.3,5.6,11.4,5.5,5.9,12.5,8.9,20.7,9,13.7.2,29.7.1,45.2.1h1.8l13.9-14.8h-57.3c-1.5,0-3.1-.2-4.9-.7-3.9-1.1-6.4-4.1-6.7-8.4v-35.4c0-1.5,0-3.1.7-4.6,1-2.7,2.9-4.5,5.5-5.3,1.7-.6,3.4-.8,4.9-.9,6.5-.1,12.9,0,19.4,0h32.6c1.5,0,3.1.3,4.7.9,2.8.9,4.7,3,5.5,5.9.3,1.2.5,2.4.5,3.5v68.7h0v3.3c0,.8-.2,1.8-.6,2.7-1,2.2-2.7,3.8-5.2,4.7-1.7.6-3.6,1-5.6.9h-51.5l-12.2,14.8c13.4.1,36.9,0,54.2,0h12.2c1.3,0,2.6-.1,3.8-.3,4.2-.5,8.3-1.8,12-4.1,4.5-2.8,7.7-6.3,9.6-10.8,1.3-3,1.9-6.3,1.9-10.4v-63.8l-.2-30.2Z"/>
        <path class="cls-11" d="M807.1,262.4v-.4h-18.6v58.7c0,1.3,0,2.6-.4,3.9-.6,2.8-2.3,4.9-4.9,6.1-1.9.9-4,1.3-6.7,1.3h-49.7c-1.6,0-3.1-.2-4.6-.5-3.5-.8-5.9-2.9-7-6.1-.5-1.5-.5-3-.5-4.4v-58.8h-18.5v58.5c0,1.7,0,3.4.3,5.2.6,4.4,2.4,8.4,5.4,11.7,5.5,6,12.5,9.1,20.9,9.2h48.5c5.7.1,10.8-1.3,14.9-4,.2-.2,1.4-.9,2.4-2.1h0v17.8c0,2.8-1.4,5.1-3.9,6.8-2,1.3-4.4,1.9-7.3,1.9h-51.8l-12.2,14.8h66.3c1.1,0,2.4-.1,3.9-.3,5.1-.6,9.8-2.4,13.9-5.4,6.4-4.7,9.6-10.9,9.7-18.4,0-23.5,0-47.4,0-70.5v-25Z"/>
      </g>
      <g>
        <path class="cls-1" d="M219.1,553c-.1-.2-.2-.4-.4-.5-5.1-7.1-11.6-12.6-18.8-16.5l4.9-10.4,1.1-2.4c1.4-2.9.2-6.3-2.7-7.6-2.9-1.4-6.3-.2-7.6,2.7l-1.4,2.9-5,10.5c-5-1.5-10.2-2.3-15.4-2.3-11.1,0-22.3,3.3-32,10.3-24.8,17.7-30.5,52.1-12.8,76.9.4.5.8,1,1.2,1.6l-8.2,4.3c-.7.4-1.3.9-1.8,1.5-1.4,1.7-1.7,4.2-.6,6.2,1,1.9,3,3,5.1,3s1.8-.2,2.7-.7h0c0-.1,10.6-5.7,10.6-5.7,6.2,5.8,13.7,11.1,21.8,15.2l-.3,12.6v1.6c-.1,3.2,2.4,5.8,5.6,5.8h.1c2.3,0,4.2-1.3,5.1-3.3.3-.7.6-1.5.6-2.3l.2-9.5c7.8,2.8,15.9,4.5,23.4,4.5s6.6-.3,9.8-1c6.7-1.7,13.3-4.6,18.6-12.4-2.6-6.5-4.1-13.5-4.1-20.9v-64.1h.2ZM147.4,598.3c-3.6,0-6.5-2.9-6.5-6.5s2.9-6.5,6.5-6.5,6.5,2.9,6.5,6.5-2.9,6.5-6.5,6.5ZM179,563.1c0-3.6,2.9-6.5,6.5-6.5s6.5,2.9,6.5,6.5-2.9,6.5-6.5,6.5-6.5-2.9-6.5-6.5ZM192,617.8c-3.6,0-6.5-2.9-6.5-6.5s2.9-6.5,6.5-6.5,6.5,2.9,6.5,6.5-2.9,6.5-6.5,6.5Z"/>
        <path class="cls-1" d="M146.2,410.3c-.4-2.7-2.7-4.8-5.5-4.9-2.2,0-4.1,1.2-5.2,3-.4.8-.7,1.6-.7,2.5l-.3,8.9c-.7,0-1.5-.1-2.2-.1-3.5,0-7.1.5-10.6,1.5-20.5,5.9-32.4,27.3-26.6,47.8.5,1.6,1.1,3.4,2,5.4l-11.8,1.3-4.1.4c-3.1.3-5.4,3.2-5.1,6.3.3,2.9,2.8,5.1,5.7,5.1h.6l8-.9,12.5-1.3c9.2,15,24.3,32.6,38.1,41.4,9.2-5.3,19.5-8.2,30.2-8.6,2.2-6.8,3.2-15.4,3.4-24.4l11.5-2.3h.7c3.1-.7,5.1-3.7,4.5-6.8-.5-2.7-2.9-4.6-5.5-4.6s-.8,0-1.2.1l-10.2,2c-.7-13.5-2.8-26.5-5-34.3-3.5-12.2-12.5-21.4-23.5-25.5l.4-10.9c0-.4-.1-.8-.1-1.1h0ZM151.6,497c0,3.6-2.9,6.5-6.5,6.5s-6.5-2.9-6.5-6.5,2.9-6.5,6.5-6.5,6.5,2.9,6.5,6.5ZM147.4,450.9c0,3.6-2.9,6.5-6.5,6.5s-6.5-2.9-6.5-6.5,2.9-6.5,6.5-6.5,6.5,2.9,6.5,6.5Z"/>
        <path class="cls-3" d="M86.3,519.4c-5.2-2.3-10.7-3.4-16-3.4-11.3,0-22.2,4.9-29.8,13.4l-7.2-8.7q-.1-.1-.2-.2c-2-2.2-5.5-2.5-7.8-.6-2.4,2-2.8,5.6-.8,8.1l1.6,1.9,7.9,9.6c-.1.1-.1.2-.2.3-6.9,15.7-2.8,33.5,8.9,44.8l-8.3,7.9-1.3,1.2c-2.3,2.2-2.4,5.8-.2,8.1,1.1,1.2,2.6,1.8,4.2,1.8s2.8-.5,3.9-1.6l2.6-2.4,8.7-8.2c.7.4,1.4.7,2.1,1.1,6.8,3,15.5,4.6,24.4,4.6s21-2.2,29.1-6.9c-.5-5.5-.3-11,.6-16.6,1.4-8.5,4.4-16.4,8.7-23.5-6.7-13.3-19.1-25.5-30.9-30.7ZM72.2,550.6c-3.6,0-6.5-2.9-6.5-6.5s2.9-6.5,6.5-6.5,6.5,2.9,6.5,6.5-2.9,6.5-6.5,6.5ZM83.9,580.7c-3.6,0-6.5-2.9-6.5-6.5s2.9-6.5,6.5-6.5,6.5,2.9,6.5,6.5-2.9,6.5-6.5,6.5Z"/>
        <path class="cls-3" d="M42.9,416.4c1.3.5,2.8.6,4.2,0l2.3-.9,11.9-4.6c3.8,3,8.3,5.6,13.2,7.6,5.9,2.4,12.4,3.9,18.4,4.1,6.2-7.5,14.6-13,24-15.9,3.9-14.1-2.8-34.2-12.6-44.3-3.2-3.3-7-5.8-11.1-7.5-3.7-1.5-7.7-2.2-11.6-2.3v-10.7c0-.3,0-.6,0-.9-.4-2.7-2.8-4.9-5.6-4.9s-5.7,2.6-5.7,5.7v12.4c-4.3,1.5-8.3,3.9-11.8,7.3-11.1,10.8-12.9,27.5-5.2,40.2l-10.2,4c-.2.1-.3.2-.5.3-2.6,1.3-3.8,4.3-2.7,7.1.5,1.6,1.7,2.8,3.1,3.3h0ZM82,377.4c1.4-3.3,5.2-4.9,8.5-3.6,3.3,1.4,4.9,5.2,3.6,8.5-1.4,3.3-5.2,4.9-8.5,3.6-3.3-1.3-4.9-5.1-3.6-8.5h0Z"/>
        <path class="cls-3" d="M401.6,325.7c-11.3,14-28.4,21.1-50.9,21.1s-4-.1-6.1-.2v22.6c.8.1,1.6.2,2.5.2,2.2.1,4.4.2,6.5.2h0c36.7,0,57.2-15.8,67.9-29,30.3-37.6,16.2-94.5,14.5-100.9-2-7.5-6.8-13.8-13.6-17.7-4-2.3-8.4-3.6-12.9-3.8,5,18.3,17.7,75.7-7.9,107.5Z"/>
        <path class="cls-3" d="M344.6,336.2c22.3,1.3,38.7-4.4,48.9-17,23-28.5,9.7-84.4,5.5-99.6-14.7,4.7-23.3,20.1-19.3,35.1,3.7,14.2,5,38.9-3.6,49.5-4.4,5.4-13.2,7.8-26.2,7.2h-1.5c-1.3,0-2.6.1-3.8.3,0-.2,0,24.5,0,24.5Z"/>
        <path class="cls-3" d="M219.1,393.8v-22.7c-11.9-4-39.9-17.5-47.9-56.9-.9-4.5-1.5-9-1.8-13.4-.8,1.5-1.7,2.9-2.9,4.2-3.8,4.2-9.2,6.6-14.8,6.6s-3-.2-4.4-.5c2.7,28,14.5,46,24.9,56.8,14.7,15,32.5,22.3,46.9,25.9Z"/>
        <path class="cls-3" d="M183.4,264.7c-.4,1.6-.8,3.3-1.1,5,.2,1.1.3,2.1.3,3.2,0,3.2-.8,6.3-2.2,9-1,9.5-1,19.9,1.1,30.2,6.3,30.9,26.6,43.3,37.7,47.9v-28.5c-1.9-1.2-3.6-2.7-5.2-4.3-6.6-6.9-9.5-17.9-8.7-32.7.7-14.1-8.8-26.4-21.9-29.8Z"/>
        <path class="cls-3" d="M294.3,593.3V216.1c0-7.5-.5-14.1-1.2-20.1-1.5.3-3,.5-4.5.5-5.6,0-11-2.4-14.8-6.6-2.8-3.2-4.5-7-4.9-11.1-2.8,9.3-4.8,21.4-4.8,37.3v377.2c0,8.7.9,28,4.4,44.8,2.3,11.1,5.4,19.3,8.8,24.2h3.6c3.5-4.9,6.6-13.2,8.8-24.2,3.7-16.8,4.6-36.1,4.6-44.8Z"/>
        <path class="cls-3" d="M334.2,507.5V205.1c0-7.6-1.9-14.8-5.3-21.2-.8,2.2-2.1,4.2-3.6,5.9-3.8,4.2-9.2,6.6-14.8,6.6s-4.7-.4-6.9-1.3c.8,6.3,1.2,13.1,1.2,20.8v377.2c0,6.1-.4,46.1-11.6,68.8,16.7-1.5,30.8-12.1,37.2-26.9-3.2-6-5.8-12.8-7.8-20.3-6.7-25.3-5.4-55.8,3.6-85.8,2.3-7.3,5-14.5,8-21.4h0Z"/>
        <path class="cls-3" d="M264.9,661.3c-10.7-22.9-11.2-61.9-11.2-68V216.1c0-20.7,3.1-35.9,7.6-47.1-1.2-1.8-2.2-3.8-2.7-5.9-17,6.5-29,22.9-29,42.1v412.1c0,21.5,15.1,39.5,35.3,44h0Z"/>
        <path class="cls-1" d="M351.1,645.7c-2.1-74.6,21.1-128,41.3-160.1,4.3-6.8,8.6-12.8,12.7-18.3-5.5-3.6-8.8-9.6-8.8-16.4s0-.6.1-.9c-24.7,11.7-48.4,42.3-60.3,82.1-14.1,47.6-7.1,93.5,15,113.6Z"/>
        <path class="cls-1" d="M430.1,521.6c1.8-11.6,2.9-22.8,3.4-33-2,.7-4.1,1.1-6.3,1.1-5.6,0-11-2.4-14.8-6.6-1.1-1.3-2.1-2.7-2.8-4.1-2.8,3.9-5.7,8.2-8.6,12.7-19.7,31.3-42.2,83.8-39.3,157.5,45.2-34.1,62.2-87.6,68.4-127.6h0Z"/>
        <path class="cls-1" d="M459.6,569.1c9.3-31.1,9.6-61.4,2.5-84.3-3.6,3.1-8.2,4.9-13,4.9s-3.4-.2-5.1-.7c-.5,10.5-1.6,21.9-3.5,34-9,58.1-33.1,103.7-70,132.6,33.2,6.5,72.5-31.2,89.1-86.5Z"/>
        <path class="cls-4" d="M412.4,442.4c-7.4,3.3-7.4,13.7,0,17,3.7,1.6,5.9,5.5,5.5,9.5-.6,5.9,4.1,10.3,9.3,10.3s3.7-.6,5.4-1.8c1.6-1.2,3.6-1.8,5.5-1.8s3.9.6,5.5,1.8h0c1.7,1.3,3.6,1.8,5.4,1.8,5.2,0,9.9-4.4,9.3-10.3-.4-4,1.8-7.9,5.5-9.5,7.4-3.3,7.4-13.7,0-17-3.7-1.6-5.9-5.5-5.5-9.5.6-5.9-4.1-10.3-9.3-10.3s-3.7.6-5.4,1.8h0c-1.6,1.2-3.6,1.8-5.5,1.8s-3.9-.6-5.5-1.8c-1.7-1.3-3.6-1.8-5.4-1.8-5.2,0-9.9,4.4-9.3,10.3.5,4.1-1.8,7.9-5.5,9.5h0ZM438.1,457.4c-3.6,0-6.5-2.9-6.5-6.5s2.9-6.5,6.5-6.5,6.5,2.9,6.5,6.5-2.9,6.5-6.5,6.5Z"/>
        <path class="cls-4" d="M146.4,299.4c1.7,1.3,3.6,1.8,5.4,1.8,5.2,0,9.9-4.4,9.3-10.3-.4-4,1.8-7.9,5.5-9.5h0c7.4-3.3,7.4-13.7,0-17h0c-3.7-1.6-5.9-5.5-5.5-9.5.6-5.9-4.1-10.3-9.3-10.3s-3.7.6-5.4,1.8c-1.6,1.2-3.6,1.8-5.5,1.8s-3.9-.6-5.5-1.8c-1.7-1.3-3.6-1.8-5.4-1.8-5.2,0-9.9,4.4-9.3,10.3.4,4-1.8,7.9-5.5,9.5h0c-7.4,3.3-7.4,13.7,0,17h0c3.7,1.6,5.9,5.5,5.5,9.5-.6,5.9,4.1,10.3,9.3,10.3s3.7-.6,5.4-1.8c1.6-1.2,3.6-1.8,5.5-1.8s3.9.6,5.5,1.8ZM134.4,272.9c0-3.6,2.9-6.5,6.5-6.5s6.5,2.9,6.5,6.5-2.9,6.5-6.5,6.5-6.5-2.9-6.5-6.5Z"/>
        <path class="cls-4" d="M273.9,166.3c3.7,1.6,5.9,5.5,5.5,9.5h0c-.6,5.9,4.1,10.3,9.3,10.3s3.7-.6,5.4-1.8c1.6-1.2,3.6-1.8,5.5-1.8s3.9.6,5.5,1.8c1.7,1.3,3.6,1.8,5.4,1.8,5.2,0,9.9-4.4,9.3-10.3h0c-.4-4,1.8-7.9,5.5-9.5,7.4-3.3,7.4-13.7,0-17-3.7-1.6-5.9-5.5-5.5-9.5.6-5.9-4.2-10.3-9.3-10.3s-3.7.6-5.4,1.8c-1.6,1.2-3.6,1.8-5.5,1.8s-3.9-.6-5.5-1.8c-1.7-1.3-3.6-1.8-5.4-1.8-5.2,0-9.9,4.4-9.3,10.3.4,4-1.8,7.9-5.5,9.5-7.4,3.3-7.4,13.7,0,17ZM306.1,157.8c0,3.6-2.9,6.5-6.5,6.5s-6.5-2.9-6.5-6.5,2.9-6.5,6.5-6.5,6.5,2.9,6.5,6.5Z"/>
      </g>
    </g>
    <g id="Fabric">
      <path class="cls-7" d="M43.5,357.6c-1.9-1-8.7-4.8-11.5-12.9-.8-2.2-2.4-7.9,0-14,.5-1.2,2.7-7,6.8-7.5,2.2-.3,4,1.2,4.6,1.5,26.1,13.4,52,27.4,77.9,41.2,47.3,25.1,94.9,50,141.9,75.7,14.5,7.9,26.9,7.5,41.4-.4,70-37.9,140.4-75,210.8-112.1,5.4-2.9,8-4.9,14.3-3.1,5.9,6.3,1.4,28.2-4.6,31.7-8.2,5-15,6.9-23.4,11.4-14.4,7.8-28.8,15.5-43.3,23.3-26.2,13.5-22.7,11.8-33.2,17.8-18.9,10.5-35.6,18.9-55.5,30.7-12.2,7.1-16.3,7.9-29.3,16.1-10.5,6.2-10.4,18.8-8.1,29.5-12.6,6.9-25.3,14-37.9,20.9-6.8,3.8-13.5,4.3-20.6.4-13.1-7.4-26.4-14.4-39.6-21.6-3.6-10.3-7.1-20.7-10.7-31-60-32.5-119.9-65.1-179.9-97.6Z"/>
      <path class="cls-7" d="M344.3,549.9c-2.1,1.4-7.8,5.5-11,13.3-3.4,8.3-1.8,15.7-1.2,18.1-.5.3-1,.5-1.5.7q-48,26.1-96.1-1c-.5-10.2.2-24.4-11.8-30.8-8.8-5.4-21.9-12.1-30.6-17.6-18.6-11.3-26.9-16.8-46.2-27.3-3.8-2.4-11.6-6.2-16.4-8.7q-8.7-4.6-17.8-9.6c-21.9-11.6-44.4-22.8-66.4-34.2-10.5-5.6-17.1-24.1-11.9-34.6,2.4-5.1,7.8-.7,10.7.9,40.6,21.2,80.9,42.8,121.3,64.3,33.4,17.8,67,35.3,100.2,53.4,12.6,6.8,24.3,6.4,36.9-.4,72.7-38.9,145.6-77.3,218.3-116.4,10.4-5.6,12.9-4.7,13.3,7.5.3,7.2-.7,12.9-3.5,17.5-3.9,6.3-10,9-12.8,10.2-12.1,5.5-32,16.3-59.7,31.9-37.9,21-75.9,41.9-113.8,62.9Z"/>
      <path class="cls-7" d="M465.8,307.7c-56.3-29.9-112.7-59.6-168.9-89.8-10.2-5.5-18.6-4.5-28.4.8-54.7,29.5-109.6,58.4-164.4,87.6-3.9,2.1-7.3,3-7.9,7.8-.8,6.4,3.5,7.8,7.5,9.9,55.7,29.9,111.7,58.7,167.5,88.4,4,2.2,8,4.1,15.1,3.7,1.6-.6,5.4-1.7,8.8-3.5,57.4-30.5,114.6-61.1,172.1-91.2,13.2-6.8,5.8-10-1.4-13.8ZM382.2,320.1c-30.8,16.4-61.7,32.8-92.6,49.1h0c-3.5,1.8-7.7,1.8-11.4.2-1.4-.6-2.9-1.3-4.2-2-28.4-15-56.8-30-85.2-45.1-3.3-1.8-7.7-2.4-7.8-7,0-4.7,4.3-5.7,7.6-7.5,27.8-15,55.7-29.7,83.5-44.7,6.8-3.7,13.2-5,20.6-.9,29.2,16,58.6,31.4,88,47,5.9,3,10.8,6,1.6,10.9Z"/>
      <path class="cls-7" d="M305.1,625.7c113.3-57.6,187-98.1,209.5-111.3,6.1-3.6,13.1-8.2,15.7-4.6,6.2,8.7-1,28.8-5.9,32.4-4.1,2.9-5.8,3.2-10.3,5.6-70.8,37.7-141.7,75.3-212.4,113.1-12.6,6.8-24.2,6.9-37,.2-73.2-39.3-141-75.4-214.5-114-10.1-5.3-15.8-10.1-18.6-21.5-4.7-19,.9-20.9,15.1-13.4,71.4,37.8,142.9,75.3,214,113.8,3.4,2,11.3,5.9,22,5.9,11,0,19-4.1,22.4-6.1Z"/>
      <g>
        <path class="cls-11" d="M1404.8,340.6c0-.7,0-1.3.2-2h0c0,0-17.8,0-17.8,0v.5c-.6,4-3.2,6.9-6.9,7.8-1.4.3-3,.5-4.4.5h-51c-1.4,0-3-.2-4.4-.5-3.4-.8-5.6-2.8-6.5-5.8-.4-1.2-.6-2.5-.6-3.8,0-1.9,0-3.9,0-5.9v-4l91.8.2v-21.2c0-2.3-.2-4.3-.5-6.2-.8-5.1-3.1-9.4-7-12.8-5.2-4.6-11.6-6.9-19-7-8.1,0-16.2,0-24.4,0h-32.2c-1.6,0-3.5.2-5.4.5-3.3.6-6.2,1.6-9,3.2-4.1,2.3-7.3,5.4-9.4,9.2-1.9,3.5-2.9,7.2-2.9,11.5v32.6c0,1.2,0,2.6.3,3.9,1,6.9,4.7,12.4,11,16.2,4.7,2.8,10.1,4.2,15.9,4.2h55.3c4.8,0,9.3-1,13.4-2.9,8-3.7,12.4-9.7,13.4-18ZM1313.3,303.4c.2-4.4,2.9-7.6,7.3-8.5,1.4-.3,3-.5,4.5-.5h50.5c1.5,0,3.7,0,5.7.8,3.6,1.2,5.6,3.8,5.9,7.5.2,2.1,0,4.3,0,6.4v3.9h-74v-4c0-1.7,0-3.7,0-5.6Z"/>
        <path class="cls-11" d="M1794,300c-.8-5.1-3.1-9.4-7-12.8-5.2-4.6-11.6-6.9-19-7-8.1,0-16.2,0-24.4,0h-32.2c-1.6,0-3.5.2-5.4.5-3.3.6-6.2,1.6-9,3.2-4.1,2.3-7.3,5.4-9.4,9.2-1.9,3.5-2.9,7.2-2.9,11.5v32.6c0,1.2,0,2.6.3,3.9,1,6.9,4.7,12.4,11,16.2,4.7,2.8,10.1,4.2,15.9,4.2h55.3c4.8,0,9.3-1,13.4-2.9,8-3.8,12.4-9.8,13.4-18.1,0-.7,0-1.3.2-2h0c0,0-17.8,0-17.8,0v.5c-.6,4-3.2,6.9-6.9,7.8-1.4.3-3,.5-4.4.5h-51c-1.4,0-3-.2-4.4-.5-3.4-.8-5.6-2.8-6.5-5.8-.4-1.2-.6-2.5-.6-3.8,0-1.9,0-3.9,0-5.9v-4l91.8.2v-21.2c0-2.2-.2-4.2-.5-6.1ZM1776.6,309v3.9h-74v-4c0-1.8,0-3.8,0-5.7.2-4.4,2.9-7.6,7.3-8.5,1.4-.3,3-.5,4.5-.5h50.5c1.5,0,3.7,0,5.7.8,3.6,1.2,5.6,3.8,5.9,7.5,0,2.3,0,4.4,0,6.5Z"/>
        <path class="cls-11" d="M1132.8,300c-.8-5.1-3.1-9.4-7-12.8-5.2-4.6-11.6-6.9-19-7-8.1,0-16.2,0-24.4,0h-32.1c-1.6,0-3.5.2-5.4.5-3.3.6-6.2,1.6-9,3.2-4.1,2.3-7.3,5.4-9.4,9.2-1.9,3.5-2.9,7.2-2.9,11.5v32.7c0,1.2,0,2.6.3,3.9,1,6.9,4.7,12.4,11,16.2,4.7,2.8,10.1,4.2,15.9,4.2h55.3c4.8,0,9.3-1,13.4-2.9,8-3.8,12.4-9.8,13.4-18.1,0-.7,0-1.3.2-2h0c0,0-17.8,0-17.8,0v.5c-.6,4-3.2,6.9-6.9,7.8-1.4.3-3,.5-4.4.5h-51c-1.4,0-3-.2-4.4-.5-3.4-.8-5.6-2.8-6.5-5.8-.4-1.2-.6-2.5-.6-3.8,0-1.9,0-3.9,0-5.9v-1.8c0-.3,0-.5,0-.8l.2-1.2h91.5v-21.2c-.2-2.3-.3-4.3-.6-6.2ZM1115.4,309.1v2.7c0,.3,0,.5-.2.6l-.2.6h-.7c0,0-72.7,0-72.7,0v-1.1c0-.2-.2-.4-.2-.6v-2.4c0-1.8,0-3.8,0-5.7.2-4.4,2.9-7.6,7.3-8.5,1.4-.3,3-.5,4.5-.5h50.5c1.5,0,3.7,0,5.7.8,3.6,1.2,5.6,3.8,5.9,7.5,0,2.3,0,4.4,0,6.5Z"/>
        <path class="cls-11" d="M641.5,301.6v-62.9h-18v122.8h5.7c2.9,0,6.2,0,12.2,0v-13.8c0-12.3,0-9.5,0-21.8v-24.1h0Z"/>
        <path class="cls-11" d="M1894.8,292.9c-2.1-4-5.2-7.1-9.1-9.3-3.9-2.2-8.5-3.3-13.8-3.4-7.2,0-13.7,0-19.9,0-4.1,0-8.3,1-11.8,2.5-2.4,1.1-4.5,2.7-6.4,4.5h0c0,0,0-6.8,0-6.8h-18s.4,81.4,0,81.2h17.8l.3-55c0-1.6,0-3.1.3-4.3.4-3.2,2.1-5.5,5.1-6.7,2.1-.9,4.2-1.1,6.1-1.1h23.2c1.2,0,2.5.2,3.7.4,4.5.7,7.4,3.9,7.7,8.7h17.9c-.4-4.3-1.4-7.8-3-10.7Z"/>
        <path class="cls-11" d="M1234.7,292.9c-2.1-4-5.2-7.1-9.1-9.3-3.9-2.2-8.5-3.3-13.8-3.4-7.2,0-13.7,0-19.9,0-4.1,0-8.3,1-11.8,2.5-2.4,1.1-4.5,2.7-6.4,4.5h0c0,0,0-6.8,0-6.8h-18s.4,81.4,0,81.2h17.8l.3-55c0-1.6,0-3.1.3-4.3.4-3.2,2.1-5.5,5.1-6.7,2.1-.9,4.2-1.1,6.1-1.1h23.2c1.2,0,2.5.2,3.7.4,4.5.7,7.4,3.9,7.7,8.7h17.9c-.4-4.3-1.4-7.8-3-10.7Z"/>
        <path class="cls-11" d="M975.8,361.6c1,0,1.9,0,2.9-.2h.2c5.1-.6,9.8-2.4,13.7-5.2,3.5-2.5,6-5.5,7.6-9.2,1.2-3,1.9-6.1,1.9-9.8v-32.8c0-1.7,0-3.9-.6-6.1-1.3-5.4-4.3-9.7-8.8-12.9-5.1-3.7-11-5.5-17.7-5.5h-42.8c-1.7,0-3.5.2-5.2.5-3.9.7-7.7,2.1-11.1,4.4-.2.2-1.4,1-2.4,1.6h0v-6.1h-17.9v103.2h17.9v-78.2c0-1,0-1.9,0-3,.5-3.7,2.4-6.1,5.7-7.2,1.5-.6,3.2-.9,4.7-.9,6.2,0,12.4,0,18.6,0h31.3c1.4,0,3.1.3,4.7.9,3.5,1.2,5.7,4.3,5.7,8.2v34.9c0,4.5-2.7,7.8-7,8.7-1.4.3-2.9.5-4.4.5h-41.7l-13.4,14.2h58Z"/>
        <path class="cls-11" d="M1535,361.2v-119.8h-17.9v94.9c0,1,0,1.9,0,3-.5,3.7-2.4,6.1-5.7,7.2-1.5.6-3.2.9-4.7.9h-49.9c-1.4,0-3.1-.3-4.7-.9-3.5-1.2-5.7-4.3-5.7-8.2v-34.9c0-4.5,2.7-7.8,7-8.7,1.4-.3,2.9-.5,4.4-.5h41.6l13.4-14.2h-58.2c-1,0-1.9,0-2.9.2h-.2c-5.2.6-9.8,2.4-13.7,5.2-3.5,2.5-6,5.6-7.6,9.2-1.2,3-1.9,6.1-1.9,9.8v32.8c0,1.7,0,3.9.6,6.1,1.3,5.4,4.3,9.7,8.8,12.9,5.1,3.7,11,5.5,17.7,5.5h42.8c1.7,0,3.5-.2,5.2-.5,3.9-.7,7.7-2.1,11.1-4.4.2-.2,1.2-.8,2.4-1.4h0v6h18.1Z"/>
        <polygon class="cls-11" points="1255.3 239.7 1255.3 361.6 1273.2 361.6 1273.2 239.7 1255.3 239.7"/>
        <path class="cls-11" d="M726.9,239.7v55.5h-73.6l-11.7,14.2h85.3v52.2h18v-122h-18Z"/>
        <path class="cls-11" d="M1664.5,280.5v-.6h-17.8v6.3c0,0-7.3-6.5-19.4-6.5h-42c-2.1,0-3.8,0-5.4.4-4.2.7-8,2.1-11.2,4.1-4.7,3-7.9,6.9-9.5,11.6-.9,2.5-1.3,5.3-1.3,8.5v32.3c0,1.9,0,3.7.4,5.2.8,4.2,2.5,8,5.4,11,5.3,5.7,12,8.5,19.9,8.6,13.2.2,28.5,0,43.4,0h1.7l13.4-14.2h-55c-1.4,0-3-.2-4.7-.7-3.7-1.1-6.1-3.9-6.4-8.1v-34c0-1.4,0-3,.7-4.4,1-2.6,2.8-4.3,5.3-5.1,1.6-.6,3.3-.8,4.7-.9,6.2,0,12.4,0,18.6,0h31.3c1.4,0,3,.3,4.5.9,2.7.9,4.5,2.9,5.3,5.7.3,1.2.5,2.3.5,3.4v66h0v3.2c0,.8-.2,1.7-.6,2.6-1,2.1-2.6,3.7-5,4.5-1.6.6-3.5,1-5.4.9h-49.5l-11.7,14.2c12.9,0,35.4,0,52.1,0h11.7c1.2,0,2.5,0,3.7-.3,4-.5,8-1.7,11.5-3.9,4.3-2.7,7.4-6.1,9.2-10.4,1.2-2.9,1.8-6.1,1.8-10v-61.3l-.2-29Z"/>
        <path class="cls-11" d="M872.8,280.6v-.4h-17.9v56.4c0,1.2,0,2.5-.4,3.7-.6,2.7-2.2,4.7-4.7,5.9-1.8.9-3.8,1.2-6.4,1.2h-47.7c-1.5,0-3-.2-4.4-.5-3.4-.8-5.7-2.8-6.7-5.9-.5-1.4-.5-2.9-.5-4.2v-56.5h-17.8v56.2c0,1.6,0,3.3.3,5,.6,4.2,2.3,8.1,5.2,11.2,5.3,5.8,12,8.7,20.1,8.8h46.6c5.5,0,10.4-1.2,14.3-3.8.2-.2,1.3-.9,2.3-2h0v17.1c0,2.7-1.3,4.9-3.7,6.5-1.9,1.2-4.2,1.8-7,1.8h-49.8l-11.8,14h63.7c1.1,0,2.3,0,3.7-.3,4.9-.6,9.4-2.3,13.4-5.2,6.1-4.5,9.2-10.5,9.3-17.7,0-22.6,0-45.5,0-67.7v-23.8h0Z"/>
      </g>
      <g>
        <path class="cls-11" d="M628.9,662.4v-230.3h139.2v25h-111.6v77.3h102.7v25.1h-102.7v102.9h-27.6Z"/>
        <path class="cls-11" d="M773.9,662.4l71-230.3h48.7l71,230.3h-28.7l-17.8-58.2h-97.9l-17.8,58.2h-28.7ZM827.2,579.2h83.9l-39.5-130.2h-4.6l-39.8,130.2Z"/>
        <path class="cls-11" d="M988.4,662.4v-24.7h32.3v-180.9h-32.3v-24.7h115.4c13.3,0,25.2,2.4,35.7,7.2,10.5,4.9,18.6,11.5,24.3,20.2,5.8,8.7,8.7,18.8,8.7,30.5v2.6c0,10.7-2.1,19.6-6.2,26.5-4.1,6.9-9.1,12.3-14.8,16.1-5.7,3.9-11.3,6.7-16.8,8.4v4.6c5.5,1.4,11.2,3.9,17.1,7.8,5.9,3.9,10.9,9.3,15,16.3,4.1,7,6.1,15.9,6.1,26.7v3.2c0,12.5-3,23.3-9,32.4-6,9.1-14.2,16-24.7,20.7-10.5,4.7-22.4,7-35.7,7h-115.3ZM1048.2,533.8h53.3c13.2,0,23.7-3.3,31.5-10,7.9-6.7,11.8-15.5,11.8-26.5v-3.3c0-11.2-3.9-20.1-11.7-26.8-7.8-6.7-18.4-10-31.7-10h-53.3v76.6h0ZM1048.2,637.4h52.3c14.5,0,25.5-3.4,33.3-10.2,7.7-6.8,11.5-16,11.5-27.7v-3c0-11.6-3.9-20.8-11.5-27.7-7.7-6.8-18.7-10.2-33.3-10.2h-52.3v78.7Z"/>
        <path class="cls-11" d="M1216.7,662.4v-230.3h93.1c14.2,0,26.8,2.4,37.7,7.4,10.8,5,19.4,12,25.5,21.1s9.2,20,9.2,32.7v3.6c0,15.1-3.6,27.1-10.8,35.9-7.2,8.7-15.8,14.7-25.7,17.8v4.6c7.9.2,14.4,2.8,19.6,7.8,5.1,5,7.8,12.3,7.8,22.2v77.3h-27.3v-74c0-6.6-1.8-11.6-5.4-15.1-3.6-3.5-9-5.2-16.3-5.2h-79.6v94.5h-27.7ZM1244.3,543h62.8c15.1,0,26.8-3.7,35.1-11,8.2-7.3,12.3-17.6,12.3-30.7v-2.3c0-13.2-4.1-23.4-12.2-30.7-8.1-7.4-19.8-11-35.2-11h-62.8v85.8Z"/>
        <path class="cls-11" d="M1424.2,662.4v-230.3h27.7v230.3h-27.7Z"/>
        <path class="cls-11" d="M1587.7,667c-27.4,0-49.2-7.9-65.4-23.9-16.2-15.9-24.3-39.1-24.3-69.6v-52.6c0-30.5,8.1-53.7,24.3-69.6,16.2-15.9,38-23.9,65.4-23.9s48,7.6,62.6,22.7c14.6,15.1,21.9,35.9,21.9,62.2v1.6h-27.3v-2.6c0-17.3-4.7-31.5-14-42.6-9.3-11.1-23.7-16.6-43.3-16.6s-34.8,5.9-45.7,17.9c-11,12-16.4,28.7-16.4,50.2v54c0,21.4,5.5,38.2,16.4,50.2,11,12,26.2,17.9,45.7,17.9s34-5.5,43.3-16.6c9.3-11.1,14-25.2,14-42.6v-5.2h27.3v4.2c0,26.3-7.3,47-21.9,62.2-14.5,15.1-35.4,22.6-62.6,22.6Z"/>
      </g>
      <path class="cls-10" d="M-23.7,384"/>
    </g>
  </g>
</svg>